<svg width="1728" height="3391" viewBox="0 0 1728 3391" fill="none" xmlns="http://www.w3.org/2000/svg">
<path d="M-455 -468.778L-451.627 2599.69L-451.565 2655.54C-451.474 2738.22 -437.222 2820.28 -409.426 2898.14C-397.878 2930.5 -384.043 2961.98 -368.024 2992.37L-366.245 2995.75C-334.504 3055.96 -294.993 3111.75 -248.727 3161.67L-235.863 3175.55L-192.646 3210.88C-145.682 3249.28 -89.657 3274.98 -29.9244 3285.54C-9.40881 3289.17 11.3866 3290.98 32.2205 3290.96L112.059 3290.87C366.353 3290.59 570.236 3080.43 562.803 2826.25L501.87 742.615L501.702 590.401C501.244 173.562 964.154 -76.8451 1312.79 151.653C1559.68 313.471 1624.2 647.219 1455.4 889.394L1295.38 1118.98C1047.46 1474.67 1129.86 1963.36 1480.7 2218.1L2366.77 2861.44C2437.85 2913.05 2479.96 2995.54 2480.06 3083.38L2479.97 3013.48" stroke="#175E2F" stroke-opacity="0.6" stroke-width="200"/>
</svg>
