<svg width="1728" height="3391" viewBox="0 0 1728 3391" fill="none" xmlns="http://www.w3.org/2000/svg">
<path d="M-454.999 -468.778L-451.626 2599.69L-451.564 2655.54C-451.473 2738.22 -437.221 2820.28 -409.425 2898.15C-397.877 2930.5 -384.041 2961.98 -368.023 2992.37L-366.244 2995.75C-334.502 3055.96 -294.992 3111.75 -248.726 3161.67L-235.862 3175.55L-192.644 3210.88C-145.681 3249.28 -89.6558 3274.98 -29.9234 3285.54C-9.40763 3289.17 11.3878 3290.98 32.2218 3290.96L112.061 3290.87C366.355 3290.59 570.237 3080.43 562.804 2826.25L501.871 742.615L501.704 590.401C501.245 173.562 964.155 -76.8451 1312.79 151.653C1559.68 313.471 1624.2 647.219 1455.4 889.394L1295.38 1118.98C1047.46 1474.67 1129.86 1963.36 1480.7 2218.1L2366.77 2861.44C2437.85 2913.05 2479.96 2995.54 2480.06 3083.38L2479.97 3013.48" stroke="#2E5D34" stroke-opacity="0.51" stroke-width="200"/>
</svg>
